<svg xmlns="http://www.w3.org/2000/svg" viewBox="0 0 800 520">
  <rect width="800" height="520" fill="#0b1627"/>
  <rect x="20" y="20" width="760" height="480" rx="28" fill="#12233b"/>
  <path d="M228 132 C191 164,180 239,223 264 C277 295,360 251,410 289 C448 317,427 389,479 401 C546 416,606 355,625 294 C640 246,629 199,597 165 C564 129,513 123,473 148 C436 171,414 233,371 227 C326 220,286 80,228 132 Z" fill="none" stroke="#edf3ff" stroke-width="24" stroke-linecap="round" stroke-linejoin="round"/>
  <text x="400" y="444" fill="#ffd36a" font-family="Manrope, Arial, sans-serif" font-size="30" text-anchor="middle">Mount Panorama</text>
  <text x="400" y="476" fill="#98abc6" font-family="Manrope, Arial, sans-serif" font-size="18" text-anchor="middle">Заглушка. Замените файл своей схемой трассы.</text>
</svg>
