<svg xmlns="http://www.w3.org/2000/svg" viewBox="0 0 800 520">
  <rect width="800" height="520" fill="#0b1627"/>
  <rect x="20" y="20" width="760" height="480" rx="28" fill="#12233b"/>
  <path d="M188 226 C190 169,241 126,295 127 C343 127,385 162,433 160 C484 158,519 121,569 126 C628 133,674 180,671 237 C668 299,612 342,554 337 C500 333,465 284,412 282 C357 280,321 338,266 341 C212 344,186 284,188 226 Z" fill="none" stroke="#edf3ff" stroke-width="24" stroke-linecap="round" stroke-linejoin="round"/>
  <path d="M474 160 C478 206,520 242,566 242" fill="none" stroke="#edf3ff" stroke-width="24" stroke-linecap="round" stroke-linejoin="round"/>
  <text x="400" y="444" fill="#ffd36a" font-family="Manrope, Arial, sans-serif" font-size="30" text-anchor="middle">Silverstone</text>
  <text x="400" y="476" fill="#98abc6" font-family="Manrope, Arial, sans-serif" font-size="18" text-anchor="middle">Заглушка. Замените файл своей схемой трассы.</text>
</svg>
